<svg width="114" height="18" viewBox="0 0 114 18" fill="none" xmlns="http://www.w3.org/2000/svg">
<path d="M15.9623 6.20694L11.4992 5.55831L9.50411 1.51358C9.44962 1.40284 9.35997 1.31319 9.24923 1.2587C8.9715 1.12159 8.634 1.23585 8.49513 1.51358L6.50001 5.55831L2.03693 6.20694C1.91388 6.22452 1.80138 6.28253 1.71525 6.37042C1.61112 6.47744 1.55374 6.62143 1.55571 6.77074C1.55769 6.92006 1.61886 7.06247 1.72579 7.16671L4.95489 10.3149L4.192 14.7605C4.17411 14.8639 4.18556 14.9702 4.22504 15.0675C4.26452 15.1647 4.33045 15.2489 4.41537 15.3106C4.50028 15.3723 4.60078 15.4089 4.70546 15.4164C4.81014 15.4239 4.91482 15.4018 5.00763 15.3528L8.99962 13.254L12.9916 15.3528C13.1006 15.4108 13.2272 15.4302 13.3485 15.4091C13.6543 15.3564 13.86 15.0663 13.8072 14.7605L13.0443 10.3149L16.2735 7.16671C16.3613 7.08057 16.4193 6.96807 16.4369 6.84503C16.4844 6.53741 16.2699 6.25264 15.9623 6.20694Z" fill="#50B2EA"/>
<path d="M39.9623 6.20694L35.4992 5.55831L33.5041 1.51358C33.4496 1.40284 33.36 1.31319 33.2492 1.2587C32.9715 1.12159 32.634 1.23585 32.4951 1.51358L30.5 5.55831L26.0369 6.20694C25.9139 6.22452 25.8014 6.28253 25.7152 6.37042C25.6111 6.47744 25.5537 6.62143 25.5557 6.77074C25.5577 6.92006 25.6189 7.06247 25.7258 7.16671L28.9549 10.3149L28.192 14.7605C28.1741 14.8639 28.1856 14.9702 28.225 15.0675C28.2645 15.1647 28.3305 15.2489 28.4154 15.3106C28.5003 15.3723 28.6008 15.4089 28.7055 15.4164C28.8101 15.4239 28.9148 15.4018 29.0076 15.3528L32.9996 13.254L36.9916 15.3528C37.1006 15.4108 37.2272 15.4302 37.3485 15.4091C37.6543 15.3564 37.86 15.0663 37.8072 14.7605L37.0443 10.3149L40.2735 7.16671C40.3613 7.08057 40.4193 6.96807 40.4369 6.84503C40.4844 6.53741 40.2699 6.25264 39.9623 6.20694Z" fill="#50B2EA"/>
<path d="M63.9623 6.20694L59.4992 5.55831L57.5041 1.51358C57.4496 1.40284 57.36 1.31319 57.2492 1.2587C56.9715 1.12159 56.634 1.23585 56.4951 1.51358L54.5 5.55831L50.0369 6.20694C49.9139 6.22452 49.8014 6.28253 49.7152 6.37042C49.6111 6.47744 49.5537 6.62143 49.5557 6.77074C49.5577 6.92006 49.6189 7.06247 49.7258 7.16671L52.9549 10.3149L52.192 14.7605C52.1741 14.8639 52.1856 14.9702 52.225 15.0675C52.2645 15.1647 52.3305 15.2489 52.4154 15.3106C52.5003 15.3723 52.6008 15.4089 52.7055 15.4164C52.8101 15.4239 52.9148 15.4018 53.0076 15.3528L56.9996 13.254L60.9916 15.3528C61.1006 15.4108 61.2272 15.4302 61.3485 15.4091C61.6543 15.3564 61.86 15.0663 61.8072 14.7605L61.0443 10.3149L64.2735 7.16671C64.3613 7.08057 64.4193 6.96807 64.4369 6.84503C64.4844 6.53741 64.2699 6.25264 63.9623 6.20694Z" fill="#50B2EA"/>
<path d="M87.9623 6.20694L83.4992 5.55831L81.5041 1.51358C81.4496 1.40284 81.36 1.31319 81.2492 1.2587C80.9715 1.12159 80.634 1.23585 80.4951 1.51358L78.5 5.55831L74.0369 6.20694C73.9139 6.22452 73.8014 6.28253 73.7152 6.37042C73.6111 6.47744 73.5537 6.62143 73.5557 6.77074C73.5577 6.92006 73.6189 7.06247 73.7258 7.16671L76.9549 10.3149L76.192 14.7605C76.1741 14.8639 76.1856 14.9702 76.225 15.0675C76.2645 15.1647 76.3305 15.2489 76.4154 15.3106C76.5003 15.3723 76.6008 15.4089 76.7055 15.4164C76.8101 15.4239 76.9148 15.4018 77.0076 15.3528L80.9996 13.254L84.9916 15.3528C85.1006 15.4108 85.2272 15.4302 85.3485 15.4091C85.6543 15.3564 85.86 15.0663 85.8072 14.7605L85.0443 10.3149L88.2735 7.16671C88.3613 7.08057 88.4193 6.96807 88.4369 6.84503C88.4844 6.53741 88.2699 6.25264 87.9623 6.20694Z" fill="#50B2EA"/>
<path d="M111.962 6.20694L107.499 5.55831L105.504 1.51358C105.45 1.40284 105.36 1.31319 105.249 1.2587C104.971 1.12159 104.634 1.23585 104.495 1.51358L102.5 5.55831L98.0369 6.20694C97.9139 6.22452 97.8014 6.28253 97.7152 6.37042C97.6111 6.47744 97.5537 6.62143 97.5557 6.77074C97.5577 6.92006 97.6189 7.06247 97.7258 7.16671L100.955 10.3149L100.192 14.7605C100.174 14.8639 100.186 14.9702 100.225 15.0675C100.265 15.1647 100.33 15.2489 100.415 15.3106C100.5 15.3723 100.601 15.4089 100.705 15.4164C100.81 15.4239 100.915 15.4018 101.008 15.3528L105 13.254L108.992 15.3528C109.101 15.4108 109.227 15.4302 109.348 15.4091C109.654 15.3564 109.86 15.0663 109.807 14.7605L109.044 10.3149L112.273 7.16671C112.361 7.08057 112.419 6.96807 112.437 6.84503C112.484 6.53741 112.27 6.25264 111.962 6.20694Z" fill="#50B2EA"/>
</svg>
